<svg width="76" height="72" fill="none" xmlns="http://www.w3.org/2000/svg"><path d="m67.377 21.125-8.512-8.512c.262-1.575.675-3.038 1.2-4.313.3-.675.45-1.387.45-2.175A5.617 5.617 0 0 0 54.89.5c-6.15 0-11.588 2.963-15 7.5H21.14C9.74 8 .515 17.225.515 28.625S9.89 71.75 9.89 71.75h20.625v-7.5h7.5v7.5H58.64l6.3-20.962 10.575-3.525V21.125h-8.138ZM41.765 26.75h-18.75v-7.5h18.75v7.5Zm11.25 7.5a3.761 3.761 0 0 1-3.75-3.75 3.761 3.761 0 0 1 3.75-3.75 3.761 3.761 0 0 1 3.75 3.75 3.761 3.761 0 0 1-3.75 3.75Z" fill="#FFC300"/></svg>