<svg width="84" height="80" viewBox="0 0 84 80" fill="none" xmlns="http://www.w3.org/2000/svg">
<path d="M74.6413 23.2503L65.1829 13.7919C65.4746 12.0419 65.9329 10.4169 66.5163 9.00025C66.8496 8.25025 67.0163 7.45859 67.0163 6.58359C67.0163 3.12525 64.2246 0.333588 60.7663 0.333588C53.9329 0.333588 47.8913 3.62525 44.0996 8.66692H23.2663C10.5996 8.66692 0.349609 18.9169 0.349609 31.5836C0.349609 44.2503 10.7663 79.5003 10.7663 79.5003H33.6829V71.1669H42.0163V79.5003H64.9329L71.933 56.2086L83.683 52.2919V23.2503H74.6413ZM46.1829 29.5003H25.3496V21.1669H46.1829V29.5003ZM58.6829 37.8336C56.3913 37.8336 54.5163 35.9586 54.5163 33.6669C54.5163 31.3753 56.3913 29.5003 58.6829 29.5003C60.9746 29.5003 62.8496 31.3753 62.8496 33.6669C62.8496 35.9586 60.9746 37.8336 58.6829 37.8336Z" fill="#FFC300"/>
</svg>
