<svg width="25" height="25" fill="none" xmlns="http://www.w3.org/2000/svg"><path d="M18.75 6.25h-2.083A4.165 4.165 0 0 0 12.5 2.083 4.166 4.166 0 0 0 8.333 6.25H6.25a2.09 2.09 0 0 0-2.083 2.083v12.5a2.09 2.09 0 0 0 2.083 2.084h12.5a2.09 2.09 0 0 0 2.083-2.084v-12.5A2.09 2.09 0 0 0 18.75 6.25ZM12.5 4.167a2.09 2.09 0 0 1 2.083 2.083h-4.166A2.09 2.09 0 0 1 12.5 4.167Zm6.25 16.666H6.25v-12.5h2.083v2.084c0 .573.47 1.041 1.042 1.041.573 0 1.042-.468 1.042-1.041V8.333h4.166v2.084c0 .573.47 1.041 1.042 1.041.573 0 1.042-.468 1.042-1.041V8.333h2.083v12.5Z" fill="#000"/></svg>