<svg width="100" height="95" fill="none" xmlns="http://www.w3.org/2000/svg"><path d="M90 20H79.1c.55-1.55.9-3.25.9-5 0-8.3-6.7-15-15-15-5.25 0-9.8 2.7-12.5 6.75L50 10.1l-2.5-3.4C44.8 2.7 40.25 0 35 0c-8.3 0-15 6.7-15 15 0 1.75.35 3.45.9 5H10C4.45 20 .05 24.45.05 30L0 85c0 5.55 4.45 10 10 10h80c5.55 0 10-4.45 10-10V30c0-5.55-4.45-10-10-10ZM65 10c2.75 0 5 2.25 5 5s-2.25 5-5 5-5-2.25-5-5 2.25-5 5-5Zm-30 0c2.75 0 5 2.25 5 5s-2.25 5-5 5-5-2.25-5-5 2.25-5 5-5Zm55 75H10V75h80v10Zm0-25H10V30h25.4L25 44.15 33.1 50 45 33.8l5-6.8 5 6.8L66.9 50l8.1-5.85L64.6 30H90v30Z" fill="#FFC300"/></svg>