<svg width="76" height="72" fill="none" xmlns="http://www.w3.org/2000/svg"><path d="M68.015 15.5H59.84c.412-1.162.675-2.437.675-3.75C60.515 5.525 55.49.5 49.265.5c-3.938 0-7.35 2.025-9.375 5.063l-1.875 2.512-1.875-2.55C34.115 2.525 30.702.5 26.765.5a11.235 11.235 0 0 0-11.25 11.25c0 1.313.262 2.588.675 3.75H8.015C3.852 15.5.552 18.838.552 23L.515 64.25c0 4.163 3.337 7.5 7.5 7.5h60c4.162 0 7.5-3.337 7.5-7.5V23c0-4.162-3.338-7.5-7.5-7.5ZM49.265 8a3.761 3.761 0 0 1 3.75 3.75 3.761 3.761 0 0 1-3.75 3.75 3.761 3.761 0 0 1-3.75-3.75A3.761 3.761 0 0 1 49.265 8Zm-22.5 0a3.761 3.761 0 0 1 3.75 3.75 3.761 3.761 0 0 1-3.75 3.75 3.761 3.761 0 0 1-3.75-3.75A3.761 3.761 0 0 1 26.765 8Zm41.25 56.25h-60v-7.5h60v7.5Zm0-18.75h-60V23h19.05l-7.8 10.613L25.34 38l8.925-12.15 3.75-5.1 3.75 5.1L50.69 38l6.075-4.387L48.965 23h19.05v22.5Z" fill="#FFC300"/></svg>