<svg width="84" height="80" viewBox="0 0 84 80" fill="none" xmlns="http://www.w3.org/2000/svg">
<path d="M75.3496 17.0002H66.2663C66.7246 15.7086 67.0163 14.2919 67.0163 12.8336C67.0163 5.91689 61.4329 0.333557 54.5163 0.333557C50.1413 0.333557 46.3496 2.58356 44.0996 5.95856L42.0163 8.75022L39.9329 5.91689C37.6829 2.58356 33.8913 0.333557 29.5163 0.333557C22.5996 0.333557 17.0163 5.91689 17.0163 12.8336C17.0163 14.2919 17.3079 15.7086 17.7663 17.0002H8.68294C4.05794 17.0002 0.391276 20.7086 0.391276 25.3336L0.349609 71.1669C0.349609 75.7919 4.05794 79.5002 8.68294 79.5002H75.3496C79.9746 79.5002 83.683 75.7919 83.683 71.1669V25.3336C83.683 20.7086 79.9746 17.0002 75.3496 17.0002ZM54.5163 8.66689C56.8079 8.66689 58.6829 10.5419 58.6829 12.8336C58.6829 15.1252 56.8079 17.0002 54.5163 17.0002C52.2246 17.0002 50.3496 15.1252 50.3496 12.8336C50.3496 10.5419 52.2246 8.66689 54.5163 8.66689ZM29.5163 8.66689C31.8079 8.66689 33.6829 10.5419 33.6829 12.8336C33.6829 15.1252 31.8079 17.0002 29.5163 17.0002C27.2246 17.0002 25.3496 15.1252 25.3496 12.8336C25.3496 10.5419 27.2246 8.66689 29.5163 8.66689ZM75.3496 71.1669H8.68294V62.8336H75.3496V71.1669ZM75.3496 50.3336H8.68294V25.3336H29.8496L21.1829 37.1252L27.9329 42.0002L37.8496 28.5002L42.0163 22.8336L46.1829 28.5002L56.0996 42.0002L62.8496 37.1252L54.1829 25.3336H75.3496V50.3336Z" fill="#FFC300"/>
</svg>
