<svg width="40" height="40" fill="none" xmlns="http://www.w3.org/2000/svg"><path d="M20 40c-2.708 0-5.3-.527-7.773-1.582-2.474-1.055-4.603-2.474-6.387-4.258-1.784-1.784-3.203-3.913-4.258-6.387A19.62 19.62 0 0 1 0 20c0-2.708.527-5.3 1.582-7.773C2.637 9.753 4.056 7.624 5.84 5.84c1.784-1.784 3.913-3.203 6.387-4.258A19.62 19.62 0 0 1 20 0c2.708 0 5.3.527 7.773 1.582 2.474 1.055 4.603 2.474 6.387 4.258 1.784 1.784 3.203 3.913 4.258 6.387A19.62 19.62 0 0 1 40 20c0 2.708-.527 5.3-1.582 7.773-1.055 2.474-2.474 4.603-4.258 6.387-1.784 1.784-3.913 3.203-6.387 4.258A19.62 19.62 0 0 1 20 40Zm10-27.5c0-.677-.24-1.263-.723-1.758A2.383 2.383 0 0 0 27.5 10h-15c-.677 0-1.263.247-1.758.742-.495.495-.742 1.08-.742 1.758V15h4.453c1.51-1.667 3.36-2.5 5.547-2.5 2.188 0 4.037.833 5.547 2.5H30v-2.5ZM15 20c0 1.38.488 2.559 1.465 3.535C17.44 24.512 18.62 25 20 25c1.38 0 2.559-.488 3.535-1.465C24.512 22.56 25 21.38 25 20c0-1.38-.488-2.559-1.465-3.535C22.56 15.488 21.38 15 20 15c-1.38 0-2.559.488-3.535 1.465C15.488 17.44 15 18.62 15 20Zm15-2.5h-2.969c.313.86.469 1.693.469 2.5 0 2.083-.73 3.854-2.188 5.313C23.855 26.77 22.084 27.5 20 27.5s-3.854-.73-5.313-2.188C13.23 23.855 12.5 22.084 12.5 20c0-.807.156-1.64.469-2.5H10v10c0 .703.24 1.296.723 1.777.481.482 1.074.723 1.777.723h15c.703 0 1.296-.24 1.777-.723.482-.481.723-1.074.723-1.777v-10Z" fill="#E9E9E9"/></svg>