<svg width="15" height="17" fill="none" xmlns="http://www.w3.org/2000/svg"><path d="M9.35 10.929c3.325 0 5.65-2.257 5.65-5.5S12.675 0 9.35 0H2.969A.462.462 0 0 0 2.5.455v7.841H.469A.462.462 0 0 0 0 8.752v1.721c0 .252.21.456.469.456H2.5v1.214H.469a.462.462 0 0 0-.469.455v1.518c0 .252.21.455.469.455H2.5v1.974c0 .251.21.455.469.455h2.287a.462.462 0 0 0 .469-.455V14.57h6.306a.462.462 0 0 0 .469-.455v-1.518a.462.462 0 0 0-.469-.455H5.725v-1.214H9.35Zm-3.625-8.32H8.8c1.825 0 2.925 1.104 2.925 2.82 0 1.74-1.1 2.867-2.975 2.867H5.725V2.61Z" fill="#D3D3D3"/></svg>