<svg width="15" height="19" fill="none" xmlns="http://www.w3.org/2000/svg"><path d="M9.35 12.071c3.325 0 5.65-2.389 5.65-5.823C15 2.814 12.675.5 9.35.5H2.969A.476.476 0 0 0 2.5.982v8.302H.469A.476.476 0 0 0 0 9.766v1.823c0 .266.21.482.469.482H2.5v1.286H.469A.476.476 0 0 0 0 13.84v1.607c0 .267.21.483.469.483H2.5v2.089c0 .266.21.482.469.482h2.287a.476.476 0 0 0 .469-.482v-2.09h6.306a.476.476 0 0 0 .469-.482V13.84a.476.476 0 0 0-.469-.482H5.725v-1.286H9.35ZM5.725 3.262H8.8c1.825 0 2.925 1.17 2.925 2.986 0 1.842-1.1 3.036-2.975 3.036H5.725V3.262Z" fill="#FFC300"/></svg>