<svg width="29" height="34" fill="none" xmlns="http://www.w3.org/2000/svg"><path d="M18.077 21.857C24.505 21.857 29 17.345 29 10.858 29 4.371 24.505 0 18.077 0H5.74c-.5 0-.907.408-.907.91v15.683H.906c-.5 0-.906.407-.906.91v3.443c0 .503.406.911.906.911h3.927v2.429H.906c-.5 0-.906.407-.906.91v3.036c0 .503.406.91.906.91h3.927v3.947c0 .503.406.911.907.911h4.422c.5 0 .906-.408.906-.91v-3.947H23.26c.5 0 .907-.408.907-.91v-3.037a.909.909 0 0 0-.907-.91H11.068v-2.429h7.009Zm-7.009-16.64h5.945c3.529 0 5.655 2.21 5.655 5.641 0 3.478-2.126 5.735-5.751 5.735h-5.849V5.217Z" fill="#FFC300"/></svg>