<svg width="25" height="25" fill="none" xmlns="http://www.w3.org/2000/svg"><g clip-path="url(#a)"><path d="M16.198 13.542c.781 0 1.468-.427 1.823-1.073l3.729-6.76a1.038 1.038 0 0 0-.906-1.542H5.427l-.98-2.084H1.043v2.084h2.083l3.75 7.906-1.406 2.542c-.76 1.395.24 3.093 1.822 3.093h12.5v-2.083h-12.5l1.146-2.083h7.76ZM6.416 6.25h12.657l-2.875 5.208H8.885L6.417 6.25Zm.875 12.5a2.08 2.08 0 0 0-2.072 2.083 2.08 2.08 0 0 0 2.072 2.084 2.09 2.09 0 0 0 2.084-2.084 2.09 2.09 0 0 0-2.083-2.083Zm10.417 0a2.08 2.08 0 0 0-2.073 2.083 2.08 2.08 0 0 0 2.073 2.084 2.09 2.09 0 0 0 2.084-2.084 2.09 2.09 0 0 0-2.084-2.083Z" fill="#000"/></g><defs><clipPath id="a"><path fill="#fff" d="M0 0h25v25H0z"/></clipPath></defs></svg>