<svg width="40" height="40" fill="none" xmlns="http://www.w3.org/2000/svg"><path d="m.008 40 2.704-9.936A19.908 19.908 0 0 1 0 20C0 8.954 8.954 0 20 0s20 8.954 20 20-8.954 20-20 20a19.908 19.908 0 0 1-10.06-2.71L.008 40Zm12.774-29.384c-.258.016-.51.084-.742.2a2.587 2.587 0 0 0-.588.456c-.24.226-.376.422-.522.612A5.458 5.458 0 0 0 9.8 15.24c.004.98.26 1.934.66 2.826.818 1.804 2.164 3.714 3.942 5.484.428.426.846.854 1.296 1.252a18.896 18.896 0 0 0 7.68 4.092l1.138.174c.37.02.74-.008 1.112-.026a3.98 3.98 0 0 0 1.666-.462c.262-.135.517-.282.766-.44 0 0 .086-.056.25-.18.27-.2.436-.342.66-.576.166-.172.31-.374.42-.604.156-.326.312-.948.376-1.466.048-.396.034-.612.028-.746-.008-.214-.186-.436-.38-.53l-1.164-.522s-1.74-.758-2.802-1.242a.997.997 0 0 0-.354-.082.963.963 0 0 0-.756.254v-.004c-.01 0-.144.114-1.59 1.866a.7.7 0 0 1-.736.26 2.845 2.845 0 0 1-.382-.132c-.248-.104-.334-.144-.504-.218l-.01-.004a12.022 12.022 0 0 1-3.14-2c-.252-.22-.486-.46-.726-.692a12.593 12.593 0 0 1-2.04-2.536l-.118-.19a1.848 1.848 0 0 1-.204-.41c-.076-.294.122-.53.122-.53s.486-.532.712-.82c.188-.24.364-.488.526-.746.236-.38.31-.77.186-1.072-.56-1.368-1.14-2.73-1.736-4.082-.118-.268-.468-.46-.786-.498a8.877 8.877 0 0 0-.324-.032 6.752 6.752 0 0 0-.806.008v.002Z" fill="#E9E9E9"/></svg>